<mxfile host="Electron" agent="Mozilla/5.0 (Windows NT 10.0; Win64; x64) AppleWebKit/537.36 (KHTML, like Gecko) draw.io/24.7.17 Chrome/128.0.6613.36 Electron/32.0.1 Safari/537.36" version="24.7.17">
  <diagram name="Page-1" id="74e2e168-ea6b-b213-b513-2b3c1d86103e">
    <mxGraphModel dx="2647" dy="1703" grid="1" gridSize="10" guides="1" tooltips="1" connect="1" arrows="1" fold="1" page="1" pageScale="1" pageWidth="1654" pageHeight="2336" background="none" math="0" shadow="0">
      <root>
        <mxCell id="0" />
        <mxCell id="1" parent="0" />
        <mxCell id="77e6c97f196da883-1" value="Flowmap Register User" style="swimlane;html=1;childLayout=stackLayout;startSize=20;rounded=0;shadow=0;labelBackgroundColor=none;strokeWidth=1;fontFamily=Verdana;fontSize=8;align=center;" parent="1" vertex="1">
          <mxGeometry x="568" y="39" width="500" height="1500" as="geometry" />
        </mxCell>
        <mxCell id="77e6c97f196da883-2" value="Pengguna" style="swimlane;html=1;startSize=20;" parent="77e6c97f196da883-1" vertex="1">
          <mxGeometry y="20" width="250" height="1480" as="geometry" />
        </mxCell>
        <mxCell id="fOo7Phw5S_F4GMc-bI1i-70" value="" style="edgeStyle=orthogonalEdgeStyle;rounded=0;orthogonalLoop=1;jettySize=auto;html=1;" parent="77e6c97f196da883-2" source="fOo7Phw5S_F4GMc-bI1i-59" target="fOo7Phw5S_F4GMc-bI1i-69" edge="1">
          <mxGeometry relative="1" as="geometry" />
        </mxCell>
        <mxCell id="EvnkP0rzputRd2pDdyvn-1" value="Ya" style="edgeLabel;html=1;align=center;verticalAlign=middle;resizable=0;points=[];" parent="fOo7Phw5S_F4GMc-bI1i-70" vertex="1" connectable="0">
          <mxGeometry x="-0.2933" y="3" relative="1" as="geometry">
            <mxPoint as="offset" />
          </mxGeometry>
        </mxCell>
        <mxCell id="fOo7Phw5S_F4GMc-bI1i-59" value="Username&amp;nbsp;&lt;br&gt;Unique" style="strokeWidth=2;html=1;shape=mxgraph.flowchart.decision;whiteSpace=wrap;" parent="77e6c97f196da883-2" vertex="1">
          <mxGeometry x="80.5" y="561" width="100" height="100" as="geometry" />
        </mxCell>
        <mxCell id="fOo7Phw5S_F4GMc-bI1i-61" value="Verifikasi&lt;br&gt;Username&lt;br&gt;Unique" style="rounded=0;whiteSpace=wrap;html=1;" parent="77e6c97f196da883-2" vertex="1">
          <mxGeometry x="73.5" y="441" width="120" height="60" as="geometry" />
        </mxCell>
        <mxCell id="fOo7Phw5S_F4GMc-bI1i-74" value="" style="edgeStyle=orthogonalEdgeStyle;rounded=0;orthogonalLoop=1;jettySize=auto;html=1;" parent="77e6c97f196da883-2" source="fOo7Phw5S_F4GMc-bI1i-69" target="fOo7Phw5S_F4GMc-bI1i-73" edge="1">
          <mxGeometry relative="1" as="geometry" />
        </mxCell>
        <mxCell id="fOo7Phw5S_F4GMc-bI1i-69" value="Buat Data User" style="rounded=0;whiteSpace=wrap;html=1;" parent="77e6c97f196da883-2" vertex="1">
          <mxGeometry x="70.5" y="761" width="120" height="60" as="geometry" />
        </mxCell>
        <mxCell id="fOo7Phw5S_F4GMc-bI1i-77" value="" style="edgeStyle=orthogonalEdgeStyle;rounded=0;orthogonalLoop=1;jettySize=auto;html=1;" parent="77e6c97f196da883-2" source="fOo7Phw5S_F4GMc-bI1i-73" target="fOo7Phw5S_F4GMc-bI1i-76" edge="1">
          <mxGeometry relative="1" as="geometry" />
        </mxCell>
        <mxCell id="fOo7Phw5S_F4GMc-bI1i-73" value="Login&lt;br&gt;Page" style="strokeWidth=2;html=1;shape=mxgraph.flowchart.display;whiteSpace=wrap;" parent="77e6c97f196da883-2" vertex="1">
          <mxGeometry x="80.5" y="931" width="100" height="60" as="geometry" />
        </mxCell>
        <mxCell id="fOo7Phw5S_F4GMc-bI1i-76" value="Selesai" style="strokeWidth=2;html=1;shape=mxgraph.flowchart.terminator;whiteSpace=wrap;" parent="77e6c97f196da883-2" vertex="1">
          <mxGeometry x="80.5" y="1071" width="100" height="60" as="geometry" />
        </mxCell>
        <mxCell id="77e6c97f196da883-3" value="Sistem" style="swimlane;html=1;startSize=20;" parent="77e6c97f196da883-1" vertex="1">
          <mxGeometry x="250" y="20" width="250" height="1480" as="geometry" />
        </mxCell>
        <mxCell id="fOo7Phw5S_F4GMc-bI1i-4" style="edgeStyle=orthogonalEdgeStyle;rounded=0;orthogonalLoop=1;jettySize=auto;html=1;entryX=0.5;entryY=0;entryDx=0;entryDy=0;" parent="77e6c97f196da883-3" source="fOo7Phw5S_F4GMc-bI1i-2" edge="1">
          <mxGeometry relative="1" as="geometry">
            <mxPoint x="-119" y="180" as="targetPoint" />
          </mxGeometry>
        </mxCell>
        <mxCell id="fOo7Phw5S_F4GMc-bI1i-2" value="Mulai" style="strokeWidth=2;html=1;shape=mxgraph.flowchart.terminator;whiteSpace=wrap;" parent="77e6c97f196da883-3" vertex="1">
          <mxGeometry x="-169" y="60" width="100" height="60" as="geometry" />
        </mxCell>
        <mxCell id="fOo7Phw5S_F4GMc-bI1i-22" style="edgeStyle=orthogonalEdgeStyle;rounded=0;orthogonalLoop=1;jettySize=auto;html=1;entryX=0.572;entryY=-0.046;entryDx=0;entryDy=0;entryPerimeter=0;" parent="77e6c97f196da883-3" edge="1">
          <mxGeometry relative="1" as="geometry">
            <mxPoint x="-119" y="240" as="sourcePoint" />
            <mxPoint x="-119.05799999999999" y="309.24" as="targetPoint" />
          </mxGeometry>
        </mxCell>
        <mxCell id="fOo7Phw5S_F4GMc-bI1i-24" value="Input&lt;br&gt;Username" style="shape=parallelogram;perimeter=parallelogramPerimeter;whiteSpace=wrap;html=1;fixedSize=1;" parent="77e6c97f196da883-3" vertex="1">
          <mxGeometry x="-175.5" y="180" width="120" height="60" as="geometry" />
        </mxCell>
        <mxCell id="fOo7Phw5S_F4GMc-bI1i-25" value="Input&lt;br&gt;Password" style="shape=parallelogram;perimeter=parallelogramPerimeter;whiteSpace=wrap;html=1;fixedSize=1;" parent="77e6c97f196da883-3" vertex="1">
          <mxGeometry x="-175.5" y="310" width="120" height="60" as="geometry" />
        </mxCell>
        <mxCell id="fOo7Phw5S_F4GMc-bI1i-42" value="&lt;div&gt;&lt;br&gt;&lt;/div&gt;&lt;div&gt;&lt;br&gt;&lt;/div&gt;ecosphera&lt;div&gt;&lt;/div&gt;" style="strokeWidth=2;html=1;shape=mxgraph.flowchart.database;whiteSpace=wrap;" parent="77e6c97f196da883-3" vertex="1">
          <mxGeometry x="78" y="398.5" width="110" height="129" as="geometry" />
        </mxCell>
        <mxCell id="fOo7Phw5S_F4GMc-bI1i-66" value="&lt;div&gt;&lt;br&gt;&lt;/div&gt;&lt;div&gt;&lt;br&gt;&lt;/div&gt;&lt;div&gt;&lt;span style=&quot;background-color: initial;&quot;&gt;ecosphera&lt;/span&gt;&lt;br&gt;&lt;/div&gt;" style="strokeWidth=2;html=1;shape=mxgraph.flowchart.database;whiteSpace=wrap;" parent="77e6c97f196da883-3" vertex="1">
          <mxGeometry x="74" y="729" width="112" height="119" as="geometry" />
        </mxCell>
        <mxCell id="fOo7Phw5S_F4GMc-bI1i-60" value="" style="edgeStyle=orthogonalEdgeStyle;rounded=0;orthogonalLoop=1;jettySize=auto;html=1;" parent="77e6c97f196da883-1" target="fOo7Phw5S_F4GMc-bI1i-59" edge="1">
          <mxGeometry relative="1" as="geometry">
            <mxPoint x="130" y="523" as="sourcePoint" />
          </mxGeometry>
        </mxCell>
        <mxCell id="fOo7Phw5S_F4GMc-bI1i-56" value="" style="endArrow=classic;startArrow=classic;html=1;rounded=0;entryX=-0.003;entryY=0.571;entryDx=0;entryDy=0;entryPerimeter=0;" parent="77e6c97f196da883-1" source="fOo7Phw5S_F4GMc-bI1i-61" target="fOo7Phw5S_F4GMc-bI1i-42" edge="1">
          <mxGeometry width="50" height="50" relative="1" as="geometry">
            <mxPoint x="179.76082688454244" y="492.71751934637257" as="sourcePoint" />
            <mxPoint x="326.67999999999995" y="494.836" as="targetPoint" />
          </mxGeometry>
        </mxCell>
        <mxCell id="fOo7Phw5S_F4GMc-bI1i-62" value="" style="edgeStyle=orthogonalEdgeStyle;rounded=0;orthogonalLoop=1;jettySize=auto;html=1;" parent="77e6c97f196da883-1" source="fOo7Phw5S_F4GMc-bI1i-25" target="fOo7Phw5S_F4GMc-bI1i-61" edge="1">
          <mxGeometry relative="1" as="geometry" />
        </mxCell>
        <mxCell id="fOo7Phw5S_F4GMc-bI1i-63" value="" style="endArrow=classic;html=1;rounded=0;exitX=0;exitY=0.5;exitDx=0;exitDy=0;exitPerimeter=0;entryX=0;entryY=0.5;entryDx=0;entryDy=0;" parent="77e6c97f196da883-1" source="fOo7Phw5S_F4GMc-bI1i-59" target="fOo7Phw5S_F4GMc-bI1i-24" edge="1">
          <mxGeometry width="50" height="50" relative="1" as="geometry">
            <mxPoint x="80" y="631" as="sourcePoint" />
            <mxPoint x="80" y="571" as="targetPoint" />
            <Array as="points">
              <mxPoint x="30" y="631" />
              <mxPoint x="30" y="230" />
            </Array>
          </mxGeometry>
        </mxCell>
        <mxCell id="fOo7Phw5S_F4GMc-bI1i-65" value="Tidak" style="edgeLabel;html=1;align=center;verticalAlign=middle;resizable=0;points=[];" parent="fOo7Phw5S_F4GMc-bI1i-63" vertex="1" connectable="0">
          <mxGeometry x="-0.9195" y="1" relative="1" as="geometry">
            <mxPoint as="offset" />
          </mxGeometry>
        </mxCell>
        <mxCell id="fOo7Phw5S_F4GMc-bI1i-72" style="edgeStyle=orthogonalEdgeStyle;rounded=0;orthogonalLoop=1;jettySize=auto;html=1;entryX=-0.004;entryY=0.528;entryDx=0;entryDy=0;entryPerimeter=0;" parent="77e6c97f196da883-1" source="fOo7Phw5S_F4GMc-bI1i-69" target="fOo7Phw5S_F4GMc-bI1i-66" edge="1">
          <mxGeometry relative="1" as="geometry">
            <mxPoint x="320" y="811" as="targetPoint" />
          </mxGeometry>
        </mxCell>
      </root>
    </mxGraphModel>
  </diagram>
</mxfile>
